<mxfile host="Electron" agent="Mozilla/5.0 (Windows NT 10.0; Win64; x64) AppleWebKit/537.36 (KHTML, like Gecko) draw.io/26.0.9 Chrome/128.0.6613.186 Electron/32.2.5 Safari/537.36" version="26.0.9" pages="2">
  <diagram name="Без паттерна" id="xz3U-ByC0ffsWiTSNZ2B">
    <mxGraphModel dx="1050" dy="621" grid="1" gridSize="10" guides="1" tooltips="1" connect="1" arrows="1" fold="1" page="1" pageScale="1" pageWidth="827" pageHeight="1169" math="0" shadow="0">
      <root>
        <mxCell id="0" />
        <mxCell id="1" parent="0" />
        <mxCell id="N7K4YCnkLaYlek5cA4Ty-5" value="PushNotificationCreator" style="swimlane;fontStyle=1;align=center;verticalAlign=top;childLayout=stackLayout;horizontal=1;startSize=26;horizontalStack=0;resizeParent=1;resizeParentMax=0;resizeLast=0;collapsible=1;marginBottom=0;whiteSpace=wrap;html=1;" parent="1" vertex="1">
          <mxGeometry x="520" y="79" width="200" height="80" as="geometry" />
        </mxCell>
        <mxCell id="N7K4YCnkLaYlek5cA4Ty-7" value="" style="line;strokeWidth=1;fillColor=none;align=left;verticalAlign=middle;spacingTop=-1;spacingLeft=3;spacingRight=3;rotatable=0;labelPosition=right;points=[];portConstraint=eastwest;strokeColor=inherit;" parent="N7K4YCnkLaYlek5cA4Ty-5" vertex="1">
          <mxGeometry y="26" width="200" height="8" as="geometry" />
        </mxCell>
        <mxCell id="N7K4YCnkLaYlek5cA4Ty-8" value="GenerateNotification(): PushNotification" style="text;strokeColor=none;fillColor=none;align=left;verticalAlign=top;spacingLeft=4;spacingRight=4;overflow=hidden;rotatable=0;points=[[0,0.5],[1,0.5]];portConstraint=eastwest;whiteSpace=wrap;html=1;" parent="N7K4YCnkLaYlek5cA4Ty-5" vertex="1">
          <mxGeometry y="34" width="200" height="46" as="geometry" />
        </mxCell>
        <mxCell id="N7K4YCnkLaYlek5cA4Ty-13" value="PushNotification" style="swimlane;fontStyle=1;align=center;verticalAlign=top;childLayout=stackLayout;horizontal=1;startSize=26;horizontalStack=0;resizeParent=1;resizeParentMax=0;resizeLast=0;collapsible=1;marginBottom=0;whiteSpace=wrap;html=1;" parent="1" vertex="1">
          <mxGeometry x="80" y="80" width="160" height="100" as="geometry" />
        </mxCell>
        <mxCell id="N7K4YCnkLaYlek5cA4Ty-14" value="+ text: String" style="text;strokeColor=none;fillColor=none;align=left;verticalAlign=top;spacingLeft=4;spacingRight=4;overflow=hidden;rotatable=0;points=[[0,0.5],[1,0.5]];portConstraint=eastwest;whiteSpace=wrap;html=1;" parent="N7K4YCnkLaYlek5cA4Ty-13" vertex="1">
          <mxGeometry y="26" width="160" height="26" as="geometry" />
        </mxCell>
        <mxCell id="N7K4YCnkLaYlek5cA4Ty-15" value="" style="line;strokeWidth=1;fillColor=none;align=left;verticalAlign=middle;spacingTop=-1;spacingLeft=3;spacingRight=3;rotatable=0;labelPosition=right;points=[];portConstraint=eastwest;strokeColor=inherit;" parent="N7K4YCnkLaYlek5cA4Ty-13" vertex="1">
          <mxGeometry y="52" width="160" height="8" as="geometry" />
        </mxCell>
        <mxCell id="N7K4YCnkLaYlek5cA4Ty-16" value="SendNotification()&lt;div&gt;PushNotification(txt: String)&lt;/div&gt;" style="text;strokeColor=none;fillColor=none;align=left;verticalAlign=top;spacingLeft=4;spacingRight=4;overflow=hidden;rotatable=0;points=[[0,0.5],[1,0.5]];portConstraint=eastwest;whiteSpace=wrap;html=1;" parent="N7K4YCnkLaYlek5cA4Ty-13" vertex="1">
          <mxGeometry y="60" width="160" height="40" as="geometry" />
        </mxCell>
        <mxCell id="N7K4YCnkLaYlek5cA4Ty-17" value="TelegramNotification" style="swimlane;fontStyle=1;align=center;verticalAlign=top;childLayout=stackLayout;horizontal=1;startSize=26;horizontalStack=0;resizeParent=1;resizeParentMax=0;resizeLast=0;collapsible=1;marginBottom=0;whiteSpace=wrap;html=1;" parent="1" vertex="1">
          <mxGeometry x="80" y="200" width="160" height="140" as="geometry" />
        </mxCell>
        <mxCell id="N7K4YCnkLaYlek5cA4Ty-18" value="+ text: String&lt;div&gt;nickname: String&lt;/div&gt;&lt;div&gt;bot: TelegramBotClient&lt;/div&gt;" style="text;strokeColor=none;fillColor=none;align=left;verticalAlign=top;spacingLeft=4;spacingRight=4;overflow=hidden;rotatable=0;points=[[0,0.5],[1,0.5]];portConstraint=eastwest;whiteSpace=wrap;html=1;" parent="N7K4YCnkLaYlek5cA4Ty-17" vertex="1">
          <mxGeometry y="26" width="160" height="54" as="geometry" />
        </mxCell>
        <mxCell id="N7K4YCnkLaYlek5cA4Ty-19" value="" style="line;strokeWidth=1;fillColor=none;align=left;verticalAlign=middle;spacingTop=-1;spacingLeft=3;spacingRight=3;rotatable=0;labelPosition=right;points=[];portConstraint=eastwest;strokeColor=inherit;" parent="N7K4YCnkLaYlek5cA4Ty-17" vertex="1">
          <mxGeometry y="80" width="160" height="8" as="geometry" />
        </mxCell>
        <mxCell id="N7K4YCnkLaYlek5cA4Ty-20" value="SendNotification()&lt;div&gt;TelegramNotification(txt: String)&lt;/div&gt;" style="text;strokeColor=none;fillColor=none;align=left;verticalAlign=top;spacingLeft=4;spacingRight=4;overflow=hidden;rotatable=0;points=[[0,0.5],[1,0.5]];portConstraint=eastwest;whiteSpace=wrap;html=1;" parent="N7K4YCnkLaYlek5cA4Ty-17" vertex="1">
          <mxGeometry y="88" width="160" height="52" as="geometry" />
        </mxCell>
        <mxCell id="N7K4YCnkLaYlek5cA4Ty-21" value="EmailNotification" style="swimlane;fontStyle=1;align=center;verticalAlign=top;childLayout=stackLayout;horizontal=1;startSize=26;horizontalStack=0;resizeParent=1;resizeParentMax=0;resizeLast=0;collapsible=1;marginBottom=0;whiteSpace=wrap;html=1;" parent="1" vertex="1">
          <mxGeometry x="80" y="360" width="160" height="128" as="geometry" />
        </mxCell>
        <mxCell id="N7K4YCnkLaYlek5cA4Ty-22" value="+ text: String&lt;div&gt;sender_email: String&lt;/div&gt;&lt;div&gt;reciever_email: String&lt;/div&gt;" style="text;strokeColor=none;fillColor=none;align=left;verticalAlign=top;spacingLeft=4;spacingRight=4;overflow=hidden;rotatable=0;points=[[0,0.5],[1,0.5]];portConstraint=eastwest;whiteSpace=wrap;html=1;" parent="N7K4YCnkLaYlek5cA4Ty-21" vertex="1">
          <mxGeometry y="26" width="160" height="54" as="geometry" />
        </mxCell>
        <mxCell id="N7K4YCnkLaYlek5cA4Ty-23" value="" style="line;strokeWidth=1;fillColor=none;align=left;verticalAlign=middle;spacingTop=-1;spacingLeft=3;spacingRight=3;rotatable=0;labelPosition=right;points=[];portConstraint=eastwest;strokeColor=inherit;" parent="N7K4YCnkLaYlek5cA4Ty-21" vertex="1">
          <mxGeometry y="80" width="160" height="8" as="geometry" />
        </mxCell>
        <mxCell id="N7K4YCnkLaYlek5cA4Ty-24" value="SendNotification()&lt;div&gt;EmailNotification(txt: String)&lt;/div&gt;" style="text;strokeColor=none;fillColor=none;align=left;verticalAlign=top;spacingLeft=4;spacingRight=4;overflow=hidden;rotatable=0;points=[[0,0.5],[1,0.5]];portConstraint=eastwest;whiteSpace=wrap;html=1;" parent="N7K4YCnkLaYlek5cA4Ty-21" vertex="1">
          <mxGeometry y="88" width="160" height="40" as="geometry" />
        </mxCell>
        <mxCell id="N7K4YCnkLaYlek5cA4Ty-25" value="TelegramNotificationCreator" style="swimlane;fontStyle=1;align=center;verticalAlign=top;childLayout=stackLayout;horizontal=1;startSize=26;horizontalStack=0;resizeParent=1;resizeParentMax=0;resizeLast=0;collapsible=1;marginBottom=0;whiteSpace=wrap;html=1;" parent="1" vertex="1">
          <mxGeometry x="520" y="213" width="200" height="80" as="geometry" />
        </mxCell>
        <mxCell id="N7K4YCnkLaYlek5cA4Ty-27" value="" style="line;strokeWidth=1;fillColor=none;align=left;verticalAlign=middle;spacingTop=-1;spacingLeft=3;spacingRight=3;rotatable=0;labelPosition=right;points=[];portConstraint=eastwest;strokeColor=inherit;" parent="N7K4YCnkLaYlek5cA4Ty-25" vertex="1">
          <mxGeometry y="26" width="200" height="8" as="geometry" />
        </mxCell>
        <mxCell id="N7K4YCnkLaYlek5cA4Ty-28" value="GenerateNotification(): TelegramNotification" style="text;strokeColor=none;fillColor=none;align=left;verticalAlign=top;spacingLeft=4;spacingRight=4;overflow=hidden;rotatable=0;points=[[0,0.5],[1,0.5]];portConstraint=eastwest;whiteSpace=wrap;html=1;" parent="N7K4YCnkLaYlek5cA4Ty-25" vertex="1">
          <mxGeometry y="34" width="200" height="46" as="geometry" />
        </mxCell>
        <mxCell id="N7K4YCnkLaYlek5cA4Ty-29" value="EmailNotificationCreator" style="swimlane;fontStyle=1;align=center;verticalAlign=top;childLayout=stackLayout;horizontal=1;startSize=26;horizontalStack=0;resizeParent=1;resizeParentMax=0;resizeLast=0;collapsible=1;marginBottom=0;whiteSpace=wrap;html=1;" parent="1" vertex="1">
          <mxGeometry x="520" y="373" width="200" height="80" as="geometry" />
        </mxCell>
        <mxCell id="N7K4YCnkLaYlek5cA4Ty-31" value="" style="line;strokeWidth=1;fillColor=none;align=left;verticalAlign=middle;spacingTop=-1;spacingLeft=3;spacingRight=3;rotatable=0;labelPosition=right;points=[];portConstraint=eastwest;strokeColor=inherit;" parent="N7K4YCnkLaYlek5cA4Ty-29" vertex="1">
          <mxGeometry y="26" width="200" height="8" as="geometry" />
        </mxCell>
        <mxCell id="N7K4YCnkLaYlek5cA4Ty-32" value="GenerateNotification(): EmailNotification" style="text;strokeColor=none;fillColor=none;align=left;verticalAlign=top;spacingLeft=4;spacingRight=4;overflow=hidden;rotatable=0;points=[[0,0.5],[1,0.5]];portConstraint=eastwest;whiteSpace=wrap;html=1;" parent="N7K4YCnkLaYlek5cA4Ty-29" vertex="1">
          <mxGeometry y="34" width="200" height="46" as="geometry" />
        </mxCell>
        <mxCell id="N7K4YCnkLaYlek5cA4Ty-40" style="edgeStyle=orthogonalEdgeStyle;rounded=0;orthogonalLoop=1;jettySize=auto;html=1;entryX=1;entryY=0.5;entryDx=0;entryDy=0;endArrow=open;endFill=0;endSize=16;exitX=0;exitY=0.5;exitDx=0;exitDy=0;" parent="1" source="N7K4YCnkLaYlek5cA4Ty-5" target="N7K4YCnkLaYlek5cA4Ty-14" edge="1">
          <mxGeometry relative="1" as="geometry">
            <mxPoint x="520" y="119.00000000000011" as="sourcePoint" />
          </mxGeometry>
        </mxCell>
        <mxCell id="N7K4YCnkLaYlek5cA4Ty-41" style="edgeStyle=orthogonalEdgeStyle;rounded=0;orthogonalLoop=1;jettySize=auto;html=1;entryX=1;entryY=0.5;entryDx=0;entryDy=0;endSize=16;endArrow=open;endFill=0;exitX=0;exitY=0.5;exitDx=0;exitDy=0;" parent="1" source="N7K4YCnkLaYlek5cA4Ty-25" target="N7K4YCnkLaYlek5cA4Ty-18" edge="1">
          <mxGeometry relative="1" as="geometry">
            <mxPoint x="520" y="239" as="sourcePoint" />
          </mxGeometry>
        </mxCell>
        <mxCell id="N7K4YCnkLaYlek5cA4Ty-42" style="edgeStyle=orthogonalEdgeStyle;rounded=0;orthogonalLoop=1;jettySize=auto;html=1;entryX=1;entryY=0.5;entryDx=0;entryDy=0;endSize=16;endArrow=open;endFill=0;exitX=0;exitY=0.5;exitDx=0;exitDy=0;" parent="1" source="N7K4YCnkLaYlek5cA4Ty-29" target="N7K4YCnkLaYlek5cA4Ty-22" edge="1">
          <mxGeometry relative="1" as="geometry">
            <mxPoint x="520" y="400" as="sourcePoint" />
          </mxGeometry>
        </mxCell>
      </root>
    </mxGraphModel>
  </diagram>
  <diagram id="axmIACQ7HFQBNPmrluay" name="С паттерном">
    <mxGraphModel dx="1050" dy="621" grid="1" gridSize="10" guides="1" tooltips="1" connect="1" arrows="1" fold="1" page="1" pageScale="1" pageWidth="827" pageHeight="1169" math="0" shadow="0">
      <root>
        <mxCell id="0" />
        <mxCell id="1" parent="0" />
        <mxCell id="JSwoCWddkZc2TDsf9Ant-25" value="PushNotificationCreator" style="swimlane;fontStyle=1;align=center;verticalAlign=top;childLayout=stackLayout;horizontal=1;startSize=26;horizontalStack=0;resizeParent=1;resizeParentMax=0;resizeLast=0;collapsible=1;marginBottom=0;whiteSpace=wrap;html=1;" parent="1" vertex="1">
          <mxGeometry x="520" y="280" width="200" height="60" as="geometry" />
        </mxCell>
        <mxCell id="JSwoCWddkZc2TDsf9Ant-26" value="" style="line;strokeWidth=1;fillColor=none;align=left;verticalAlign=middle;spacingTop=-1;spacingLeft=3;spacingRight=3;rotatable=0;labelPosition=right;points=[];portConstraint=eastwest;strokeColor=inherit;" parent="JSwoCWddkZc2TDsf9Ant-25" vertex="1">
          <mxGeometry y="26" width="200" height="8" as="geometry" />
        </mxCell>
        <mxCell id="JSwoCWddkZc2TDsf9Ant-27" value="GenerateNotification(): Notification" style="text;strokeColor=none;fillColor=none;align=left;verticalAlign=top;spacingLeft=4;spacingRight=4;overflow=hidden;rotatable=0;points=[[0,0.5],[1,0.5]];portConstraint=eastwest;whiteSpace=wrap;html=1;" parent="JSwoCWddkZc2TDsf9Ant-25" vertex="1">
          <mxGeometry y="34" width="200" height="26" as="geometry" />
        </mxCell>
        <mxCell id="JSwoCWddkZc2TDsf9Ant-28" value="PushNotification" style="swimlane;fontStyle=1;align=center;verticalAlign=top;childLayout=stackLayout;horizontal=1;startSize=26;horizontalStack=0;resizeParent=1;resizeParentMax=0;resizeLast=0;collapsible=1;marginBottom=0;whiteSpace=wrap;html=1;" parent="1" vertex="1">
          <mxGeometry x="80" y="271" width="160" height="100" as="geometry" />
        </mxCell>
        <mxCell id="JSwoCWddkZc2TDsf9Ant-29" value="+ text: String" style="text;strokeColor=none;fillColor=none;align=left;verticalAlign=top;spacingLeft=4;spacingRight=4;overflow=hidden;rotatable=0;points=[[0,0.5],[1,0.5]];portConstraint=eastwest;whiteSpace=wrap;html=1;" parent="JSwoCWddkZc2TDsf9Ant-28" vertex="1">
          <mxGeometry y="26" width="160" height="26" as="geometry" />
        </mxCell>
        <mxCell id="JSwoCWddkZc2TDsf9Ant-30" value="" style="line;strokeWidth=1;fillColor=none;align=left;verticalAlign=middle;spacingTop=-1;spacingLeft=3;spacingRight=3;rotatable=0;labelPosition=right;points=[];portConstraint=eastwest;strokeColor=inherit;" parent="JSwoCWddkZc2TDsf9Ant-28" vertex="1">
          <mxGeometry y="52" width="160" height="8" as="geometry" />
        </mxCell>
        <mxCell id="JSwoCWddkZc2TDsf9Ant-31" value="SendNotification()&lt;div&gt;Notification(txt: String)&lt;/div&gt;" style="text;strokeColor=none;fillColor=none;align=left;verticalAlign=top;spacingLeft=4;spacingRight=4;overflow=hidden;rotatable=0;points=[[0,0.5],[1,0.5]];portConstraint=eastwest;whiteSpace=wrap;html=1;" parent="JSwoCWddkZc2TDsf9Ant-28" vertex="1">
          <mxGeometry y="60" width="160" height="40" as="geometry" />
        </mxCell>
        <mxCell id="JSwoCWddkZc2TDsf9Ant-32" value="TelegramNotification" style="swimlane;fontStyle=1;align=center;verticalAlign=top;childLayout=stackLayout;horizontal=1;startSize=26;horizontalStack=0;resizeParent=1;resizeParentMax=0;resizeLast=0;collapsible=1;marginBottom=0;whiteSpace=wrap;html=1;" parent="1" vertex="1">
          <mxGeometry x="80" y="391" width="160" height="130" as="geometry" />
        </mxCell>
        <mxCell id="JSwoCWddkZc2TDsf9Ant-33" value="+ text: String&lt;div&gt;nickname: String&lt;/div&gt;&lt;div&gt;bot: TelegramBotClient&lt;/div&gt;" style="text;strokeColor=none;fillColor=none;align=left;verticalAlign=top;spacingLeft=4;spacingRight=4;overflow=hidden;rotatable=0;points=[[0,0.5],[1,0.5]];portConstraint=eastwest;whiteSpace=wrap;html=1;" parent="JSwoCWddkZc2TDsf9Ant-32" vertex="1">
          <mxGeometry y="26" width="160" height="54" as="geometry" />
        </mxCell>
        <mxCell id="JSwoCWddkZc2TDsf9Ant-34" value="" style="line;strokeWidth=1;fillColor=none;align=left;verticalAlign=middle;spacingTop=-1;spacingLeft=3;spacingRight=3;rotatable=0;labelPosition=right;points=[];portConstraint=eastwest;strokeColor=inherit;" parent="JSwoCWddkZc2TDsf9Ant-32" vertex="1">
          <mxGeometry y="80" width="160" height="8" as="geometry" />
        </mxCell>
        <mxCell id="JSwoCWddkZc2TDsf9Ant-35" value="SendNotification()&lt;div&gt;Notification(txt: String)&lt;/div&gt;" style="text;strokeColor=none;fillColor=none;align=left;verticalAlign=top;spacingLeft=4;spacingRight=4;overflow=hidden;rotatable=0;points=[[0,0.5],[1,0.5]];portConstraint=eastwest;whiteSpace=wrap;html=1;" parent="JSwoCWddkZc2TDsf9Ant-32" vertex="1">
          <mxGeometry y="88" width="160" height="42" as="geometry" />
        </mxCell>
        <mxCell id="JSwoCWddkZc2TDsf9Ant-36" value="EmailNotification" style="swimlane;fontStyle=1;align=center;verticalAlign=top;childLayout=stackLayout;horizontal=1;startSize=26;horizontalStack=0;resizeParent=1;resizeParentMax=0;resizeLast=0;collapsible=1;marginBottom=0;whiteSpace=wrap;html=1;" parent="1" vertex="1">
          <mxGeometry x="80" y="551" width="160" height="128" as="geometry" />
        </mxCell>
        <mxCell id="JSwoCWddkZc2TDsf9Ant-37" value="+ text: String&lt;div&gt;sender_email: String&lt;/div&gt;&lt;div&gt;reciever_email: String&lt;/div&gt;" style="text;strokeColor=none;fillColor=none;align=left;verticalAlign=top;spacingLeft=4;spacingRight=4;overflow=hidden;rotatable=0;points=[[0,0.5],[1,0.5]];portConstraint=eastwest;whiteSpace=wrap;html=1;" parent="JSwoCWddkZc2TDsf9Ant-36" vertex="1">
          <mxGeometry y="26" width="160" height="54" as="geometry" />
        </mxCell>
        <mxCell id="JSwoCWddkZc2TDsf9Ant-38" value="" style="line;strokeWidth=1;fillColor=none;align=left;verticalAlign=middle;spacingTop=-1;spacingLeft=3;spacingRight=3;rotatable=0;labelPosition=right;points=[];portConstraint=eastwest;strokeColor=inherit;" parent="JSwoCWddkZc2TDsf9Ant-36" vertex="1">
          <mxGeometry y="80" width="160" height="8" as="geometry" />
        </mxCell>
        <mxCell id="JSwoCWddkZc2TDsf9Ant-39" value="SendNotification()&lt;div&gt;Notification(txt: String)&lt;/div&gt;" style="text;strokeColor=none;fillColor=none;align=left;verticalAlign=top;spacingLeft=4;spacingRight=4;overflow=hidden;rotatable=0;points=[[0,0.5],[1,0.5]];portConstraint=eastwest;whiteSpace=wrap;html=1;" parent="JSwoCWddkZc2TDsf9Ant-36" vertex="1">
          <mxGeometry y="88" width="160" height="40" as="geometry" />
        </mxCell>
        <mxCell id="JSwoCWddkZc2TDsf9Ant-40" value="TelegramNotificationCreator" style="swimlane;fontStyle=1;align=center;verticalAlign=top;childLayout=stackLayout;horizontal=1;startSize=26;horizontalStack=0;resizeParent=1;resizeParentMax=0;resizeLast=0;collapsible=1;marginBottom=0;whiteSpace=wrap;html=1;" parent="1" vertex="1">
          <mxGeometry x="520" y="414" width="200" height="60" as="geometry" />
        </mxCell>
        <mxCell id="JSwoCWddkZc2TDsf9Ant-41" value="" style="line;strokeWidth=1;fillColor=none;align=left;verticalAlign=middle;spacingTop=-1;spacingLeft=3;spacingRight=3;rotatable=0;labelPosition=right;points=[];portConstraint=eastwest;strokeColor=inherit;" parent="JSwoCWddkZc2TDsf9Ant-40" vertex="1">
          <mxGeometry y="26" width="200" height="8" as="geometry" />
        </mxCell>
        <mxCell id="JSwoCWddkZc2TDsf9Ant-42" value="GenerateNotification(): Notification" style="text;strokeColor=none;fillColor=none;align=left;verticalAlign=top;spacingLeft=4;spacingRight=4;overflow=hidden;rotatable=0;points=[[0,0.5],[1,0.5]];portConstraint=eastwest;whiteSpace=wrap;html=1;" parent="JSwoCWddkZc2TDsf9Ant-40" vertex="1">
          <mxGeometry y="34" width="200" height="26" as="geometry" />
        </mxCell>
        <mxCell id="JSwoCWddkZc2TDsf9Ant-60" style="edgeStyle=orthogonalEdgeStyle;rounded=0;orthogonalLoop=1;jettySize=auto;html=1;exitX=1;exitY=0.5;exitDx=0;exitDy=0;endSize=16;endArrow=block;endFill=0;" parent="1" source="JSwoCWddkZc2TDsf9Ant-45" target="JSwoCWddkZc2TDsf9Ant-53" edge="1">
          <mxGeometry relative="1" as="geometry">
            <Array as="points">
              <mxPoint x="760" y="621" />
              <mxPoint x="760" y="170" />
            </Array>
          </mxGeometry>
        </mxCell>
        <mxCell id="JSwoCWddkZc2TDsf9Ant-43" value="EmailNotificationCreator" style="swimlane;fontStyle=1;align=center;verticalAlign=top;childLayout=stackLayout;horizontal=1;startSize=26;horizontalStack=0;resizeParent=1;resizeParentMax=0;resizeLast=0;collapsible=1;marginBottom=0;whiteSpace=wrap;html=1;" parent="1" vertex="1">
          <mxGeometry x="520" y="569" width="200" height="70" as="geometry" />
        </mxCell>
        <mxCell id="JSwoCWddkZc2TDsf9Ant-44" value="" style="line;strokeWidth=1;fillColor=none;align=left;verticalAlign=middle;spacingTop=-1;spacingLeft=3;spacingRight=3;rotatable=0;labelPosition=right;points=[];portConstraint=eastwest;strokeColor=inherit;" parent="JSwoCWddkZc2TDsf9Ant-43" vertex="1">
          <mxGeometry y="26" width="200" height="8" as="geometry" />
        </mxCell>
        <mxCell id="JSwoCWddkZc2TDsf9Ant-45" value="GenerateNotification(): Notification" style="text;strokeColor=none;fillColor=none;align=left;verticalAlign=top;spacingLeft=4;spacingRight=4;overflow=hidden;rotatable=0;points=[[0,0.5],[1,0.5]];portConstraint=eastwest;whiteSpace=wrap;html=1;" parent="JSwoCWddkZc2TDsf9Ant-43" vertex="1">
          <mxGeometry y="34" width="200" height="36" as="geometry" />
        </mxCell>
        <mxCell id="JSwoCWddkZc2TDsf9Ant-46" style="edgeStyle=orthogonalEdgeStyle;rounded=0;orthogonalLoop=1;jettySize=auto;html=1;entryX=1;entryY=0.5;entryDx=0;entryDy=0;endArrow=open;endFill=0;endSize=16;exitX=0;exitY=0.5;exitDx=0;exitDy=0;" parent="1" source="JSwoCWddkZc2TDsf9Ant-25" target="JSwoCWddkZc2TDsf9Ant-29" edge="1">
          <mxGeometry relative="1" as="geometry">
            <mxPoint x="520" y="310.0000000000001" as="sourcePoint" />
          </mxGeometry>
        </mxCell>
        <mxCell id="JSwoCWddkZc2TDsf9Ant-47" style="edgeStyle=orthogonalEdgeStyle;rounded=0;orthogonalLoop=1;jettySize=auto;html=1;entryX=1;entryY=0.5;entryDx=0;entryDy=0;endSize=16;endArrow=open;endFill=0;exitX=0;exitY=0.5;exitDx=0;exitDy=0;" parent="1" source="JSwoCWddkZc2TDsf9Ant-40" target="JSwoCWddkZc2TDsf9Ant-33" edge="1">
          <mxGeometry relative="1" as="geometry">
            <mxPoint x="520" y="430" as="sourcePoint" />
          </mxGeometry>
        </mxCell>
        <mxCell id="JSwoCWddkZc2TDsf9Ant-48" style="edgeStyle=orthogonalEdgeStyle;rounded=0;orthogonalLoop=1;jettySize=auto;html=1;entryX=1;entryY=0.5;entryDx=0;entryDy=0;endSize=16;endArrow=open;endFill=0;exitX=0;exitY=0.5;exitDx=0;exitDy=0;" parent="1" source="JSwoCWddkZc2TDsf9Ant-43" target="JSwoCWddkZc2TDsf9Ant-37" edge="1">
          <mxGeometry relative="1" as="geometry">
            <mxPoint x="520" y="591" as="sourcePoint" />
          </mxGeometry>
        </mxCell>
        <mxCell id="JSwoCWddkZc2TDsf9Ant-49" value="&lt;i&gt;Notification&lt;/i&gt;" style="swimlane;fontStyle=1;align=center;verticalAlign=top;childLayout=stackLayout;horizontal=1;startSize=26;horizontalStack=0;resizeParent=1;resizeParentMax=0;resizeLast=0;collapsible=1;marginBottom=0;whiteSpace=wrap;html=1;" parent="1" vertex="1">
          <mxGeometry x="80" y="123" width="160" height="100" as="geometry" />
        </mxCell>
        <mxCell id="JSwoCWddkZc2TDsf9Ant-50" value="+ text: String" style="text;strokeColor=none;fillColor=none;align=left;verticalAlign=top;spacingLeft=4;spacingRight=4;overflow=hidden;rotatable=0;points=[[0,0.5],[1,0.5]];portConstraint=eastwest;whiteSpace=wrap;html=1;" parent="JSwoCWddkZc2TDsf9Ant-49" vertex="1">
          <mxGeometry y="26" width="160" height="26" as="geometry" />
        </mxCell>
        <mxCell id="JSwoCWddkZc2TDsf9Ant-51" value="" style="line;strokeWidth=1;fillColor=none;align=left;verticalAlign=middle;spacingTop=-1;spacingLeft=3;spacingRight=3;rotatable=0;labelPosition=right;points=[];portConstraint=eastwest;strokeColor=inherit;" parent="JSwoCWddkZc2TDsf9Ant-49" vertex="1">
          <mxGeometry y="52" width="160" height="8" as="geometry" />
        </mxCell>
        <mxCell id="JSwoCWddkZc2TDsf9Ant-52" value="&lt;i&gt;SendNotification()&lt;/i&gt;&lt;div&gt;&lt;i&gt;Notification(txt: String)&lt;/i&gt;&lt;/div&gt;" style="text;strokeColor=none;fillColor=none;align=left;verticalAlign=top;spacingLeft=4;spacingRight=4;overflow=hidden;rotatable=0;points=[[0,0.5],[1,0.5]];portConstraint=eastwest;whiteSpace=wrap;html=1;" parent="JSwoCWddkZc2TDsf9Ant-49" vertex="1">
          <mxGeometry y="60" width="160" height="40" as="geometry" />
        </mxCell>
        <mxCell id="JSwoCWddkZc2TDsf9Ant-53" value="&lt;i&gt;NotificationCreator&lt;/i&gt;" style="swimlane;fontStyle=1;align=center;verticalAlign=top;childLayout=stackLayout;horizontal=1;startSize=26;horizontalStack=0;resizeParent=1;resizeParentMax=0;resizeLast=0;collapsible=1;marginBottom=0;whiteSpace=wrap;html=1;" parent="1" vertex="1">
          <mxGeometry x="520" y="127" width="200" height="70" as="geometry" />
        </mxCell>
        <mxCell id="JSwoCWddkZc2TDsf9Ant-55" value="" style="line;strokeWidth=1;fillColor=none;align=left;verticalAlign=middle;spacingTop=-1;spacingLeft=3;spacingRight=3;rotatable=0;labelPosition=right;points=[];portConstraint=eastwest;strokeColor=inherit;" parent="JSwoCWddkZc2TDsf9Ant-53" vertex="1">
          <mxGeometry y="26" width="200" height="8" as="geometry" />
        </mxCell>
        <mxCell id="JSwoCWddkZc2TDsf9Ant-56" value="&lt;i&gt;GenerateNotification(): Notification&lt;/i&gt;" style="text;strokeColor=none;fillColor=none;align=left;verticalAlign=top;spacingLeft=4;spacingRight=4;overflow=hidden;rotatable=0;points=[[0,0.5],[1,0.5]];portConstraint=eastwest;whiteSpace=wrap;html=1;" parent="JSwoCWddkZc2TDsf9Ant-53" vertex="1">
          <mxGeometry y="34" width="200" height="36" as="geometry" />
        </mxCell>
        <mxCell id="JSwoCWddkZc2TDsf9Ant-58" style="edgeStyle=orthogonalEdgeStyle;rounded=0;orthogonalLoop=1;jettySize=auto;html=1;exitX=0;exitY=0.5;exitDx=0;exitDy=0;endSize=16;endArrow=block;endFill=0;" parent="1" source="JSwoCWddkZc2TDsf9Ant-33" target="JSwoCWddkZc2TDsf9Ant-50" edge="1">
          <mxGeometry relative="1" as="geometry">
            <mxPoint x="70" y="190" as="targetPoint" />
            <Array as="points">
              <mxPoint x="40" y="444" />
              <mxPoint x="40" y="159" />
            </Array>
          </mxGeometry>
        </mxCell>
        <mxCell id="JSwoCWddkZc2TDsf9Ant-59" style="edgeStyle=orthogonalEdgeStyle;rounded=0;orthogonalLoop=1;jettySize=auto;html=1;exitX=0;exitY=0.5;exitDx=0;exitDy=0;endSize=16;endArrow=block;endFill=0;" parent="1" source="JSwoCWddkZc2TDsf9Ant-37" target="JSwoCWddkZc2TDsf9Ant-50" edge="1">
          <mxGeometry relative="1" as="geometry">
            <mxPoint x="40" y="170" as="targetPoint" />
            <Array as="points">
              <mxPoint x="40" y="604" />
              <mxPoint x="40" y="159" />
            </Array>
          </mxGeometry>
        </mxCell>
        <mxCell id="JSwoCWddkZc2TDsf9Ant-57" style="edgeStyle=orthogonalEdgeStyle;rounded=0;orthogonalLoop=1;jettySize=auto;html=1;exitX=0;exitY=0.5;exitDx=0;exitDy=0;endSize=16;endArrow=block;endFill=0;" parent="1" source="JSwoCWddkZc2TDsf9Ant-29" target="JSwoCWddkZc2TDsf9Ant-50" edge="1">
          <mxGeometry relative="1" as="geometry">
            <mxPoint x="30" y="130" as="targetPoint" />
            <Array as="points">
              <mxPoint x="40" y="310" />
              <mxPoint x="40" y="159" />
            </Array>
          </mxGeometry>
        </mxCell>
        <mxCell id="JSwoCWddkZc2TDsf9Ant-61" style="edgeStyle=orthogonalEdgeStyle;rounded=0;orthogonalLoop=1;jettySize=auto;html=1;exitX=1;exitY=0.5;exitDx=0;exitDy=0;endSize=16;endArrow=block;endFill=0;" parent="1" source="JSwoCWddkZc2TDsf9Ant-42" target="JSwoCWddkZc2TDsf9Ant-53" edge="1">
          <mxGeometry relative="1" as="geometry">
            <Array as="points">
              <mxPoint x="760" y="461" />
              <mxPoint x="760" y="170" />
            </Array>
          </mxGeometry>
        </mxCell>
        <mxCell id="JSwoCWddkZc2TDsf9Ant-63" style="edgeStyle=orthogonalEdgeStyle;rounded=0;orthogonalLoop=1;jettySize=auto;html=1;exitX=1;exitY=0.5;exitDx=0;exitDy=0;endArrow=block;endFill=0;endSize=16;" parent="1" source="JSwoCWddkZc2TDsf9Ant-27" target="JSwoCWddkZc2TDsf9Ant-53" edge="1">
          <mxGeometry relative="1" as="geometry">
            <Array as="points">
              <mxPoint x="760" y="327" />
              <mxPoint x="760" y="170" />
            </Array>
          </mxGeometry>
        </mxCell>
        <mxCell id="JSwoCWddkZc2TDsf9Ant-64" style="edgeStyle=orthogonalEdgeStyle;rounded=0;orthogonalLoop=1;jettySize=auto;html=1;entryX=1;entryY=0.5;entryDx=0;entryDy=0;endSize=16;endArrow=open;endFill=0;" parent="1" source="JSwoCWddkZc2TDsf9Ant-53" target="JSwoCWddkZc2TDsf9Ant-50" edge="1">
          <mxGeometry relative="1" as="geometry" />
        </mxCell>
      </root>
    </mxGraphModel>
  </diagram>
</mxfile>
